<svg width="46" height="46" viewBox="0 0 46 46" fill="none" xmlns="http://www.w3.org/2000/svg">
<g filter="url(#filter0_d_81_33646)">
<rect x="4" width="38" height="38" rx="19" fill="black"/>
<g clip-path="url(#clip0_81_33646)">
<path d="M20 26.2949C15 27.7949 15 23.7949 13 23.2949M27 29.2949V25.4249C27.0375 24.948 26.9731 24.4687 26.811 24.0187C26.6489 23.5686 26.3929 23.1583 26.06 22.8149C29.2 22.4649 32.5 21.2749 32.5 15.8149C32.4997 14.4187 31.9627 13.0761 31 12.0649C31.4559 10.8434 31.4236 9.49321 30.91 8.29486C30.91 8.29486 29.73 7.94486 27 9.77486C24.708 9.15368 22.292 9.15368 20 9.77486C17.27 7.94486 16.09 8.29486 16.09 8.29486C15.5764 9.49321 15.5441 10.8434 16 12.0649C15.0301 13.0836 14.4925 14.4383 14.5 15.8449C14.5 21.2649 17.8 22.4549 20.94 22.8449C20.611 23.1848 20.3573 23.5903 20.1953 24.0348C20.0334 24.4793 19.9668 24.9529 20 25.4249V29.2949" stroke="#FFDCAA" stroke-width="2" stroke-linecap="round" stroke-linejoin="round"/>
</g>
</g>
<defs>
<filter id="filter0_d_81_33646" x="0" y="0" width="46" height="46" filterUnits="userSpaceOnUse" color-interpolation-filters="sRGB">
<feFlood flood-opacity="0" result="BackgroundImageFix"/>
<feColorMatrix in="SourceAlpha" type="matrix" values="0 0 0 0 0 0 0 0 0 0 0 0 0 0 0 0 0 0 127 0" result="hardAlpha"/>
<feOffset dy="4"/>
<feGaussianBlur stdDeviation="2"/>
<feComposite in2="hardAlpha" operator="out"/>
<feColorMatrix type="matrix" values="0 0 0 0 0 0 0 0 0 0 0 0 0 0 0 0 0 0 0.25 0"/>
<feBlend mode="normal" in2="BackgroundImageFix" result="effect1_dropShadow_81_33646"/>
<feBlend mode="normal" in="SourceGraphic" in2="effect1_dropShadow_81_33646" result="shape"/>
</filter>
<clipPath id="clip0_81_33646">
<rect width="24" height="24" fill="white" transform="translate(11 7.29492)"/>
</clipPath>
</defs>
</svg>
