<svg width="46" height="46" viewBox="0 0 46 46" fill="none" xmlns="http://www.w3.org/2000/svg">
<g filter="url(#filter0_d_6_9518)">
<rect x="4" width="38" height="38" rx="19" fill="black"/>
<path d="M28 9.29492H18C15.2386 9.29492 13 11.5335 13 14.2949V24.2949C13 27.0563 15.2386 29.2949 18 29.2949H28C30.7614 29.2949 33 27.0563 33 24.2949V14.2949C33 11.5335 30.7614 9.29492 28 9.29492Z" stroke="#FFDCAA" stroke-width="2" stroke-linecap="round" stroke-linejoin="round"/>
<path d="M27 18.665C27.1234 19.4972 26.9812 20.3472 26.5937 21.094C26.2062 21.8408 25.5931 22.4464 24.8416 22.8247C24.0901 23.2029 23.2384 23.3346 22.4077 23.2009C21.5771 23.0672 20.8097 22.6751 20.2148 22.0801C19.6199 21.4852 19.2277 20.7179 19.094 19.8872C18.9604 19.0565 19.092 18.2049 19.4703 17.4534C19.8485 16.7018 20.4541 16.0887 21.2009 15.7012C21.9477 15.3137 22.7977 15.1716 23.63 15.295C24.4789 15.4209 25.2648 15.8164 25.8716 16.4233C26.4785 17.0301 26.8741 17.8161 27 18.665Z" stroke="#FFDCAA" stroke-width="2" stroke-linecap="round" stroke-linejoin="round"/>
<path d="M28.5 13.7949H28.51" stroke="#FFDCAA" stroke-width="2" stroke-linecap="round" stroke-linejoin="round"/>
</g>
<defs>
<filter id="filter0_d_6_9518" x="0" y="0" width="46" height="46" filterUnits="userSpaceOnUse" color-interpolation-filters="sRGB">
<feFlood flood-opacity="0" result="BackgroundImageFix"/>
<feColorMatrix in="SourceAlpha" type="matrix" values="0 0 0 0 0 0 0 0 0 0 0 0 0 0 0 0 0 0 127 0" result="hardAlpha"/>
<feOffset dy="4"/>
<feGaussianBlur stdDeviation="2"/>
<feComposite in2="hardAlpha" operator="out"/>
<feColorMatrix type="matrix" values="0 0 0 0 0 0 0 0 0 0 0 0 0 0 0 0 0 0 0.25 0"/>
<feBlend mode="normal" in2="BackgroundImageFix" result="effect1_dropShadow_6_9518"/>
<feBlend mode="normal" in="SourceGraphic" in2="effect1_dropShadow_6_9518" result="shape"/>
</filter>
</defs>
</svg>
